<svg xmlns="http://www.w3.org/2000/svg" viewBox="0 0 800 1000" role="img"><defs>
  <linearGradient id="bg" x1="0" y1="0" x2="0" y2="1">
    <stop offset="0" stop-color="#F5F0E8"/><stop offset="1" stop-color="#EDE6D9"/>
  </linearGradient>
  <radialGradient id="vig" cx="0.5" cy="0.42" r="0.75">
    <stop offset="0.55" stop-color="#ffffff" stop-opacity="0"/>
    <stop offset="1" stop-color="#8a7a63" stop-opacity="0.10"/>
  </radialGradient>
  <linearGradient id="walnut" x1="0" y1="0" x2="1" y2="0.15">
    <stop offset="0" stop-color="#6B4A2B"/><stop offset="0.5" stop-color="#7a5735"/>
    <stop offset="1" stop-color="#57381E"/>
  </linearGradient>
  <linearGradient id="oak" x1="0" y1="0" x2="1" y2="0.2">
    <stop offset="0" stop-color="#C39A67"/><stop offset="1" stop-color="#9B7038"/>
  </linearGradient>
  <linearGradient id="honey" x1="0" y1="0" x2="1" y2="0.2">
    <stop offset="0" stop-color="#D2A86E"/><stop offset="1" stop-color="#A87C43"/>
  </linearGradient>
  <linearGradient id="lime" x1="0" y1="0" x2="1" y2="0.2">
    <stop offset="0" stop-color="#EFE7D8"/><stop offset="1" stop-color="#CDBEA4"/>
  </linearGradient>
  <linearGradient id="chalk" x1="0" y1="0" x2="0" y2="1">
    <stop offset="0" stop-color="#2f3630"/><stop offset="1" stop-color="#232823"/>
  </linearGradient>
  <filter id="soft" x="-30%" y="-30%" width="160%" height="160%">
    <feGaussianBlur stdDeviation="9"/>
  </filter>
</defs><rect width="800" height="1000" fill="url(#bg)"/><rect x="70" y="70" width="660" height="860" fill="none" stroke="#DCD2C2" stroke-width="1.5"/><line x1="70" y1="812" x2="730" y2="812" stroke="#DCD2C2" stroke-width="1.5"/><ellipse cx="400" cy="820" rx="150" ry="24" fill="#6d5b45" opacity="0.16" filter="url(#soft)"/><line x1="345" y1="470" x2="315" y2="812" stroke="#9B7038" stroke-width="11" stroke-linecap="round"/><line x1="455" y1="470" x2="485" y2="812" stroke="#9B7038" stroke-width="11" stroke-linecap="round"/><line x1="400" y1="300" x2="400" y2="812" stroke="#9B7038" stroke-width="8" stroke-linecap="round" opacity="0.7"/><rect x="250" y="150" width="300" height="470" rx="6" fill="url(#oak)" stroke="#9B7038" stroke-width="3"/><rect x="278" y="178" width="244" height="414" rx="3" fill="url(#chalk)"/><text x="400" y="238" text-anchor="middle" fill="#f2eee6" font-family="Georgia,serif" font-size="40" letter-spacing="3">BAR MENU</text><line x1="320" y1="262" x2="480" y2="262" stroke="#cbbf7d" stroke-width="1.5" opacity="0.7"/><text x="308" y="316" fill="#efe9dc" font-family="Georgia,serif" font-style="italic" font-size="25">The First Dance</text><text x="308" y="343" fill="#b9c1a6" font-family="Georgia,serif" font-size="17" letter-spacing="1">bourbon · honey</text><text x="308" y="384" fill="#efe9dc" font-family="Georgia,serif" font-style="italic" font-size="25">Something Blue</text><text x="308" y="411" fill="#b9c1a6" font-family="Georgia,serif" font-size="17" letter-spacing="1">gin · citrus</text><text x="308" y="452" fill="#efe9dc" font-family="Georgia,serif" font-style="italic" font-size="25">Sweet Tea 'Rita</text><text x="308" y="479" fill="#b9c1a6" font-family="Georgia,serif" font-size="17" letter-spacing="1">tequila · lemon</text><text x="308" y="520" fill="#efe9dc" font-family="Georgia,serif" font-style="italic" font-size="25">Sparkling</text><text x="308" y="547" fill="#b9c1a6" font-family="Georgia,serif" font-size="17" letter-spacing="1">prosecco</text><g stroke="#B08D57" stroke-width="1.2" fill="none"><line x1="600" y1="158" x2="600" y2="612"/><line x1="594" y1="158" x2="606" y2="158"/><line x1="594" y1="612" x2="606" y2="612"/></g><text x="614" y="385" fill="#B08D57" font-family="Georgia,serif" font-size="20" font-style="italic" dominant-baseline="middle">30"</text><g transform="translate(250,812) scale(1,1)" opacity="0.9"><path d="M0,0 C 20,-30 30,-70 24,-110" fill="none" stroke="#7f8a6c" stroke-width="3"/><circle cx="19" cy="-18" r="9" fill="#f3efe6" stroke="#d9d2c4" stroke-width="1.5"/><circle cx="21" cy="-46" r="11" fill="#f3efe6" stroke="#d9d2c4" stroke-width="1.5"/><circle cx="22" cy="-74" r="10" fill="#f3efe6" stroke="#d9d2c4" stroke-width="1.5"/><circle cx="23" cy="-98" r="8" fill="#f3efe6" stroke="#d9d2c4" stroke-width="1.5"/><path d="M14,-32 q -22,-6 -34,-22" fill="none" stroke="#8a9576" stroke-width="2.5"/><path d="M14,-60 q -22,-6 -34,-22" fill="none" stroke="#8a9576" stroke-width="2.5"/><path d="M14,-88 q -22,-6 -34,-22" fill="none" stroke="#8a9576" stroke-width="2.5"/></g><g opacity="0.85"><text x="70" y="954" fill="#6B4A2B" font-family="Georgia,serif" font-size="21" letter-spacing="7">SMITH <tspan fill="#B08D57">MADE</tspan></text><text x="70" y="976" fill="#6D5B45" font-family="Georgia,serif" font-size="14" letter-spacing="4">CONCEPT No. 06</text></g><rect width="800" height="1000" fill="url(#vig)"/></svg>