<svg xmlns="http://www.w3.org/2000/svg" viewBox="0 0 800 1000" role="img"><defs>
  <linearGradient id="bg" x1="0" y1="0" x2="0" y2="1">
    <stop offset="0" stop-color="#F5F0E8"/><stop offset="1" stop-color="#EDE6D9"/>
  </linearGradient>
  <radialGradient id="vig" cx="0.5" cy="0.42" r="0.75">
    <stop offset="0.55" stop-color="#ffffff" stop-opacity="0"/>
    <stop offset="1" stop-color="#8a7a63" stop-opacity="0.10"/>
  </radialGradient>
  <linearGradient id="lime" x1="0" y1="0" x2="1" y2="0.2">
    <stop offset="0" stop-color="#EFE7D8"/><stop offset="1" stop-color="#CDBEA4"/>
  </linearGradient>
  <linearGradient id="walnut" x1="0" y1="0" x2="1" y2="0.15">
    <stop offset="0" stop-color="#6B4A2B"/><stop offset="0.5" stop-color="#7a5735"/>
    <stop offset="1" stop-color="#57381E"/>
  </linearGradient>
  <filter id="soft" x="-30%" y="-30%" width="160%" height="160%">
    <feGaussianBlur stdDeviation="9"/>
  </filter>
</defs><rect width="800" height="1000" fill="url(#bg)"/><rect x="70" y="70" width="660" height="860" fill="none" stroke="#DCD2C2" stroke-width="1.5"/><line x1="70" y1="812" x2="730" y2="812" stroke="#DCD2C2" stroke-width="1.5"/><ellipse cx="400" cy="820" rx="185" ry="26" fill="#6d5b45" opacity="0.16" filter="url(#soft)"/><rect x="238" y="774" width="110" height="14" rx="4" fill="#6B4A2B"/><rect x="452" y="774" width="110" height="14" rx="4" fill="#6B4A2B"/><rect x="235" y="215" width="330" height="560" rx="10" fill="url(#lime)" stroke="#b3a488" stroke-width="4"/><text x="400" y="278" text-anchor="middle" fill="#6B4A2B" font-family="Georgia,serif" font-style="italic" font-size="40">pop the bubbly</text><g fill="url(#walnut)"><rect x="262" y="380" width="276" height="12" rx="3"/><rect x="262" y="510" width="276" height="12" rx="3"/><rect x="262" y="640" width="276" height="12" rx="3"/></g><g stroke="#a8977a" stroke-width="2" fill="#fdf9ef"><g transform="translate(292,380)"><path d="M0,0 v-14 m0,0 c-9,-4 -12,-14 -11,-24 l3,-26 h16 l3,26 c1,10 -2,20 -11,24 z" transform="translate(0,-2)"/></g><g transform="translate(346,380)"><path d="M0,0 v-14 m0,0 c-9,-4 -12,-14 -11,-24 l3,-26 h16 l3,26 c1,10 -2,20 -11,24 z" transform="translate(0,-2)"/></g><g transform="translate(400,380)"><path d="M0,0 v-14 m0,0 c-9,-4 -12,-14 -11,-24 l3,-26 h16 l3,26 c1,10 -2,20 -11,24 z" transform="translate(0,-2)"/></g><g transform="translate(454,380)"><path d="M0,0 v-14 m0,0 c-9,-4 -12,-14 -11,-24 l3,-26 h16 l3,26 c1,10 -2,20 -11,24 z" transform="translate(0,-2)"/></g><g transform="translate(508,380)"><path d="M0,0 v-14 m0,0 c-9,-4 -12,-14 -11,-24 l3,-26 h16 l3,26 c1,10 -2,20 -11,24 z" transform="translate(0,-2)"/></g><g transform="translate(292,510)"><path d="M0,0 v-14 m0,0 c-9,-4 -12,-14 -11,-24 l3,-26 h16 l3,26 c1,10 -2,20 -11,24 z" transform="translate(0,-2)"/></g><g transform="translate(346,510)"><path d="M0,0 v-14 m0,0 c-9,-4 -12,-14 -11,-24 l3,-26 h16 l3,26 c1,10 -2,20 -11,24 z" transform="translate(0,-2)"/></g><g transform="translate(400,510)"><path d="M0,0 v-14 m0,0 c-9,-4 -12,-14 -11,-24 l3,-26 h16 l3,26 c1,10 -2,20 -11,24 z" transform="translate(0,-2)"/></g><g transform="translate(454,510)"><path d="M0,0 v-14 m0,0 c-9,-4 -12,-14 -11,-24 l3,-26 h16 l3,26 c1,10 -2,20 -11,24 z" transform="translate(0,-2)"/></g><g transform="translate(508,510)"><path d="M0,0 v-14 m0,0 c-9,-4 -12,-14 -11,-24 l3,-26 h16 l3,26 c1,10 -2,20 -11,24 z" transform="translate(0,-2)"/></g><g transform="translate(292,640)"><path d="M0,0 v-14 m0,0 c-9,-4 -12,-14 -11,-24 l3,-26 h16 l3,26 c1,10 -2,20 -11,24 z" transform="translate(0,-2)"/></g><g transform="translate(346,640)"><path d="M0,0 v-14 m0,0 c-9,-4 -12,-14 -11,-24 l3,-26 h16 l3,26 c1,10 -2,20 -11,24 z" transform="translate(0,-2)"/></g><g transform="translate(400,640)"><path d="M0,0 v-14 m0,0 c-9,-4 -12,-14 -11,-24 l3,-26 h16 l3,26 c1,10 -2,20 -11,24 z" transform="translate(0,-2)"/></g><g transform="translate(454,640)"><path d="M0,0 v-14 m0,0 c-9,-4 -12,-14 -11,-24 l3,-26 h16 l3,26 c1,10 -2,20 -11,24 z" transform="translate(0,-2)"/></g><g transform="translate(508,640)"><path d="M0,0 v-14 m0,0 c-9,-4 -12,-14 -11,-24 l3,-26 h16 l3,26 c1,10 -2,20 -11,24 z" transform="translate(0,-2)"/></g></g><text x="400" y="716" text-anchor="middle" fill="#6B4A2B" font-family="Georgia,serif" font-size="17" letter-spacing="3" opacity="0.85">FIFTEEN GLASSES · SERVED FROM THE WALL</text><g stroke="#B08D57" stroke-width="1.2" fill="none"><line x1="600" y1="215" x2="600" y2="788"/><line x1="594" y1="215" x2="606" y2="215"/><line x1="594" y1="788" x2="606" y2="788"/></g><text x="614" y="500" fill="#B08D57" font-family="Georgia,serif" font-size="20" font-style="italic" dominant-baseline="middle">6&#8242;</text><g transform="translate(602,812)" opacity="0.9"><path d="M0,0 C -20,-30 -30,-70 -24,-110" fill="none" stroke="#7f8a6c" stroke-width="3"/><circle cx="-19" cy="-18" r="9" fill="#f3efe6" stroke="#d9d2c4" stroke-width="1.5"/><circle cx="-21" cy="-46" r="11" fill="#f3efe6" stroke="#d9d2c4" stroke-width="1.5"/><circle cx="-22" cy="-74" r="10" fill="#f3efe6" stroke="#d9d2c4" stroke-width="1.5"/><circle cx="-23" cy="-98" r="8" fill="#f3efe6" stroke="#d9d2c4" stroke-width="1.5"/><path d="M-14,-32 q 22,-6 34,-22" fill="none" stroke="#8a9576" stroke-width="2.5"/><path d="M-14,-60 q 22,-6 34,-22" fill="none" stroke="#8a9576" stroke-width="2.5"/><path d="M-14,-88 q 22,-6 34,-22" fill="none" stroke="#8a9576" stroke-width="2.5"/></g><g opacity="0.85"><text x="70" y="954" fill="#6B4A2B" font-family="Georgia,serif" font-size="21" letter-spacing="7">SMITH <tspan fill="#B08D57">MADE</tspan></text><text x="70" y="976" fill="#6D5B45" font-family="Georgia,serif" font-size="14" letter-spacing="4">CONCEPT No. 04</text></g><rect width="800" height="1000" fill="url(#vig)"/></svg>
