<svg xmlns="http://www.w3.org/2000/svg" viewBox="0 0 800 1000" role="img"><defs>
  <linearGradient id="bg" x1="0" y1="0" x2="0" y2="1">
    <stop offset="0" stop-color="#F5F0E8"/><stop offset="1" stop-color="#EDE6D9"/>
  </linearGradient>
  <radialGradient id="vig" cx="0.5" cy="0.42" r="0.75">
    <stop offset="0.55" stop-color="#ffffff" stop-opacity="0"/>
    <stop offset="1" stop-color="#8a7a63" stop-opacity="0.10"/>
  </radialGradient>
  <linearGradient id="oak" x1="0" y1="0" x2="1" y2="0.2">
    <stop offset="0" stop-color="#C39A67"/><stop offset="1" stop-color="#9B7038"/>
  </linearGradient>
  <filter id="soft" x="-30%" y="-30%" width="160%" height="160%">
    <feGaussianBlur stdDeviation="9"/>
  </filter>
</defs><rect width="800" height="1000" fill="url(#bg)"/><rect x="70" y="70" width="660" height="860" fill="none" stroke="#DCD2C2" stroke-width="1.5"/><line x1="70" y1="812" x2="730" y2="812" stroke="#DCD2C2" stroke-width="1.5"/><ellipse cx="400" cy="820" rx="185" ry="26" fill="#6d5b45" opacity="0.16" filter="url(#soft)"/><rect x="238" y="770" width="110" height="18" rx="4" fill="#6B4A2B"/><rect x="452" y="770" width="110" height="18" rx="4" fill="#6B4A2B"/><rect x="230" y="230" width="340" height="545" rx="8" fill="url(#oak)" stroke="#8a5f2c" stroke-width="4"/><line x1="315" y1="238" x2="315" y2="768" stroke="#7a5124" stroke-width="1.4" opacity="0.35"/><line x1="400" y1="238" x2="400" y2="768" stroke="#7a5124" stroke-width="1.4" opacity="0.35"/><line x1="485" y1="238" x2="485" y2="768" stroke="#7a5124" stroke-width="1.4" opacity="0.35"/><text x="400" y="310" text-anchor="middle" fill="#f3e9d5" font-family="Georgia,serif" font-style="italic" font-size="44">find your seat</text><line x1="285" y1="335" x2="515" y2="335" stroke="#e9dcc6" stroke-width="1.4" opacity="0.7"/><g fill="#f0e4cd" font-family="Georgia,serif" font-size="15" letter-spacing="2" text-anchor="middle"><text x="325" y="378">TABLE ONE</text><text x="475" y="378">TABLE TWO</text><text x="325" y="548">TABLE THREE</text><text x="475" y="548">TABLE FOUR</text></g><g stroke="#e6d8bd" stroke-width="1.6" opacity="0.65"><line x1="270" y1="400" x2="380" y2="400"/><line x1="270" y1="424" x2="380" y2="424"/><line x1="270" y1="448" x2="380" y2="448"/><line x1="270" y1="472" x2="380" y2="472"/><line x1="270" y1="496" x2="380" y2="496"/><line x1="420" y1="400" x2="530" y2="400"/><line x1="420" y1="424" x2="530" y2="424"/><line x1="420" y1="448" x2="530" y2="448"/><line x1="420" y1="472" x2="530" y2="472"/><line x1="420" y1="496" x2="530" y2="496"/><line x1="270" y1="570" x2="380" y2="570"/><line x1="270" y1="594" x2="380" y2="594"/><line x1="270" y1="618" x2="380" y2="618"/><line x1="270" y1="642" x2="380" y2="642"/><line x1="270" y1="666" x2="380" y2="666"/><line x1="420" y1="570" x2="530" y2="570"/><line x1="420" y1="594" x2="530" y2="594"/><line x1="420" y1="618" x2="530" y2="618"/><line x1="420" y1="642" x2="530" y2="642"/><line x1="420" y1="666" x2="530" y2="666"/></g><text x="400" y="726" text-anchor="middle" fill="#e9dcc6" font-family="Georgia,serif" font-size="17" letter-spacing="3" opacity="0.9">FIRST 100 NAMES HAND-LETTERED</text><g stroke="#B08D57" stroke-width="1.2" fill="none"><line x1="600" y1="230" x2="600" y2="788"/><line x1="594" y1="230" x2="606" y2="230"/><line x1="594" y1="788" x2="606" y2="788"/></g><text x="614" y="512" fill="#B08D57" font-family="Georgia,serif" font-size="20" font-style="italic" dominant-baseline="middle">6&#8242;</text><g transform="translate(200,812)" opacity="0.9"><path d="M0,0 C 20,-30 30,-70 24,-110" fill="none" stroke="#7f8a6c" stroke-width="3"/><circle cx="19" cy="-18" r="9" fill="#f3efe6" stroke="#d9d2c4" stroke-width="1.5"/><circle cx="21" cy="-46" r="11" fill="#f3efe6" stroke="#d9d2c4" stroke-width="1.5"/><circle cx="22" cy="-74" r="10" fill="#f3efe6" stroke="#d9d2c4" stroke-width="1.5"/><circle cx="23" cy="-98" r="8" fill="#f3efe6" stroke="#d9d2c4" stroke-width="1.5"/><path d="M14,-32 q -22,-6 -34,-22" fill="none" stroke="#8a9576" stroke-width="2.5"/><path d="M14,-60 q -22,-6 -34,-22" fill="none" stroke="#8a9576" stroke-width="2.5"/><path d="M14,-88 q -22,-6 -34,-22" fill="none" stroke="#8a9576" stroke-width="2.5"/></g><g opacity="0.85"><text x="70" y="954" fill="#6B4A2B" font-family="Georgia,serif" font-size="21" letter-spacing="7">SMITH <tspan fill="#B08D57">MADE</tspan></text><text x="70" y="976" fill="#6D5B45" font-family="Georgia,serif" font-size="14" letter-spacing="4">CONCEPT No. 02</text></g><rect width="800" height="1000" fill="url(#vig)"/></svg>
