<svg xmlns="http://www.w3.org/2000/svg" viewBox="0 0 800 1000" role="img"><defs>
  <linearGradient id="bg" x1="0" y1="0" x2="0" y2="1">
    <stop offset="0" stop-color="#F5F0E8"/><stop offset="1" stop-color="#EDE6D9"/>
  </linearGradient>
  <radialGradient id="vig" cx="0.5" cy="0.42" r="0.75">
    <stop offset="0.55" stop-color="#ffffff" stop-opacity="0"/>
    <stop offset="1" stop-color="#8a7a63" stop-opacity="0.10"/>
  </radialGradient>
  <linearGradient id="walnut" x1="0" y1="0" x2="1" y2="0.15">
    <stop offset="0" stop-color="#6B4A2B"/><stop offset="0.5" stop-color="#7a5735"/>
    <stop offset="1" stop-color="#57381E"/>
  </linearGradient>
  <linearGradient id="oak" x1="0" y1="0" x2="1" y2="0.2">
    <stop offset="0" stop-color="#C39A67"/><stop offset="1" stop-color="#9B7038"/>
  </linearGradient>
  <linearGradient id="honey" x1="0" y1="0" x2="1" y2="0.2">
    <stop offset="0" stop-color="#D2A86E"/><stop offset="1" stop-color="#A87C43"/>
  </linearGradient>
  <linearGradient id="lime" x1="0" y1="0" x2="1" y2="0.2">
    <stop offset="0" stop-color="#EFE7D8"/><stop offset="1" stop-color="#CDBEA4"/>
  </linearGradient>
  <linearGradient id="chalk" x1="0" y1="0" x2="0" y2="1">
    <stop offset="0" stop-color="#2f3630"/><stop offset="1" stop-color="#232823"/>
  </linearGradient>
  <filter id="soft" x="-30%" y="-30%" width="160%" height="160%">
    <feGaussianBlur stdDeviation="9"/>
  </filter>
</defs><rect width="800" height="1000" fill="url(#bg)"/><rect x="70" y="70" width="660" height="860" fill="none" stroke="#DCD2C2" stroke-width="1.5"/><line x1="70" y1="828" x2="730" y2="828" stroke="#DCD2C2" stroke-width="1.5"/><ellipse cx="400" cy="836" rx="235" ry="24" fill="#6d5b45" opacity="0.16" filter="url(#soft)"/><rect x="214.0" y="210" width="22.8" height="618" fill="#E4DAC8" stroke="#CDBEA4" stroke-width="0.8"/><rect x="238.8" y="210" width="22.8" height="618" fill="#DBCFB8" stroke="#CDBEA4" stroke-width="0.8"/><rect x="263.6" y="210" width="22.8" height="618" fill="#E4DAC8" stroke="#CDBEA4" stroke-width="0.8"/><rect x="288.4" y="210" width="22.8" height="618" fill="#DBCFB8" stroke="#CDBEA4" stroke-width="0.8"/><rect x="313.2" y="210" width="22.8" height="618" fill="#E4DAC8" stroke="#CDBEA4" stroke-width="0.8"/><rect x="338.0" y="210" width="22.8" height="618" fill="#DBCFB8" stroke="#CDBEA4" stroke-width="0.8"/><rect x="362.8" y="210" width="22.8" height="618" fill="#E4DAC8" stroke="#CDBEA4" stroke-width="0.8"/><rect x="387.6" y="210" width="22.8" height="618" fill="#DBCFB8" stroke="#CDBEA4" stroke-width="0.8"/><rect x="412.4" y="210" width="22.8" height="618" fill="#E4DAC8" stroke="#CDBEA4" stroke-width="0.8"/><rect x="437.2" y="210" width="22.8" height="618" fill="#DBCFB8" stroke="#CDBEA4" stroke-width="0.8"/><rect x="462.0" y="210" width="22.8" height="618" fill="#E4DAC8" stroke="#CDBEA4" stroke-width="0.8"/><rect x="486.8" y="210" width="22.8" height="618" fill="#DBCFB8" stroke="#CDBEA4" stroke-width="0.8"/><rect x="511.6" y="210" width="22.8" height="618" fill="#E4DAC8" stroke="#CDBEA4" stroke-width="0.8"/><rect x="536.4" y="210" width="22.8" height="618" fill="#DBCFB8" stroke="#CDBEA4" stroke-width="0.8"/><rect x="561.2" y="210" width="22.8" height="618" fill="#E4DAC8" stroke="#CDBEA4" stroke-width="0.8"/><rect x="214" y="210" width="372" height="618" fill="none" stroke="#CDBEA4" stroke-width="3"/><circle cx="400" cy="410" r="120" fill="url(#lime)" stroke="#6B4A2B" stroke-width="4"/><circle cx="400" cy="410" r="100" fill="none" stroke="#B08D57" stroke-width="1.5" opacity="0.7"/><text x="400" y="392" text-anchor="middle" fill="#57381E" font-family="Georgia,serif" font-style="italic" font-size="70">A</text><text x="400" y="392" text-anchor="middle" fill="#6B4A2B" font-family="Georgia,serif" font-style="italic" font-size="70" opacity="0"> </text><text x="400" y="452" text-anchor="middle" fill="#6D5B45" font-family="Georgia,serif" font-size="20" letter-spacing="4">EST. 2026</text><g stroke="#B08D57" stroke-width="1.2" fill="none"><line x1="214" y1="880" x2="586" y2="880"/><line x1="214" y1="874" x2="214" y2="886"/><line x1="586" y1="874" x2="586" y2="886"/></g><text x="400" y="868" fill="#B08D57" font-family="Georgia,serif" font-size="20" font-style="italic" text-anchor="middle">8 ft</text><g opacity="0.85"><text x="70" y="954" fill="#6B4A2B" font-family="Georgia,serif" font-size="21" letter-spacing="7">SMITH <tspan fill="#B08D57">MADE</tspan></text><text x="70" y="976" fill="#6D5B45" font-family="Georgia,serif" font-size="14" letter-spacing="4">CONCEPT No. 09</text></g><rect width="800" height="1000" fill="url(#vig)"/></svg>